<svg xmlns="http://www.w3.org/2000/svg" viewBox="0 0 200 150" width="200" height="150" role="img" aria-label="Alarm panel">
    <rect x="1" y="1" width="198" height="148" rx="8" fill="#1e1e1e" stroke="#2f2f2f" />

    <rect x="14" y="14" width="70" height="9" rx="4.5" fill="#d0d0d0" />
    <path d="M162 15.5l4.5 4 4.5-4" fill="none" stroke="#9e9e9e" stroke-width="1.6" stroke-linecap="round" stroke-linejoin="round" />
    <path d="M141 15l5.5-2.4 5.5 2.4-5.5 2.4z" fill="none" stroke="#9e9e9e" stroke-width="1.4" stroke-linejoin="round" />
    <path d="M141 19l5.5 2.4 5.5-2.4" fill="none" stroke="#9e9e9e" stroke-width="1.4" stroke-linejoin="round" />

    <rect x="14" y="32" width="172" height="22" rx="4" fill="none" stroke="#4dabf5" />
    <path d="M27 38l-4.5 1.8v3.4c0 2.6 1.9 5 4.5 5.6 2.6-.6 4.5-3 4.5-5.6v-3.4z" fill="none" stroke="#4dabf5" stroke-width="1.4" stroke-linejoin="round" />
    <rect x="39" y="40" width="54" height="6" rx="3" fill="#d0d0d0" />

    <rect x="14" y="62" width="40" height="34" rx="6" fill="#2b4b66" stroke="#4dabf5" />
    <path d="M34 69l-5 2v3.8c0 2.9 2.1 5.5 5 6.2 2.9-.7 5-3.3 5-6.2V71z" fill="none" stroke="#4dabf5" stroke-width="1.5" stroke-linejoin="round" />
    <path d="M29 68.4l10 12.4" stroke="#4dabf5" stroke-width="1.5" stroke-linecap="round" />
    <rect x="26" y="85" width="16" height="5" rx="2.5" fill="#4dabf5" />

    <rect x="58" y="62" width="40" height="34" rx="6" fill="none" stroke="#3f3f3f" />
    <path d="M78 69l-5 2v3.8c0 2.9 2.1 5.5 5 6.2 2.9-.7 5-3.3 5-6.2V71z" fill="none" stroke="#c7c7c7" stroke-width="1.5" stroke-linejoin="round" />
    <rect x="70" y="85" width="16" height="5" rx="2.5" fill="#9e9e9e" />

    <rect x="102" y="62" width="40" height="34" rx="6" fill="none" stroke="#3f3f3f" />
    <path d="M116 76.5l6-5 6 5V81h-12z" fill="none" stroke="#c7c7c7" stroke-width="1.5" stroke-linejoin="round" />
    <rect x="114" y="85" width="16" height="5" rx="2.5" fill="#9e9e9e" />

    <rect x="146" y="62" width="40" height="34" rx="6" fill="none" stroke="#3f3f3f" />
    <path d="M170 70a6.5 6.5 0 100 11.5 7.5 7.5 0 010-11.5z" fill="none" stroke="#c7c7c7" stroke-width="1.5" stroke-linejoin="round" />
    <rect x="158" y="85" width="16" height="5" rx="2.5" fill="#9e9e9e" />

    <rect x="14" y="104" width="172" height="18" rx="4" fill="none" stroke="#3f3f3f" />
    <circle cx="86" cy="113" r="4.5" fill="none" stroke="#c7c7c7" stroke-width="1.3" />
    <path d="M86 110.5v2.8l1.8 1.1" fill="none" stroke="#c7c7c7" stroke-width="1.3" stroke-linecap="round" />
    <rect x="96" y="110" width="30" height="5" rx="2.5" fill="#c7c7c7" />

    <rect x="14" y="129" width="54" height="14" rx="5" fill="none" stroke="#4caf50" />
    <circle cx="24" cy="136" r="4" fill="none" stroke="#4caf50" stroke-width="1.3" />
    <path d="M22.2 136l1.3 1.3 2.4-2.6" fill="none" stroke="#4caf50" stroke-width="1.3" stroke-linecap="round" stroke-linejoin="round" />
    <rect x="32" y="133.5" width="28" height="5" rx="2.5" fill="#4caf50" />

    <rect x="73" y="129" width="54" height="14" rx="5" fill="none" stroke="#4caf50" />
    <circle cx="83" cy="136" r="4" fill="none" stroke="#4caf50" stroke-width="1.3" />
    <path d="M81.2 136l1.3 1.3 2.4-2.6" fill="none" stroke="#4caf50" stroke-width="1.3" stroke-linecap="round" stroke-linejoin="round" />
    <rect x="91" y="133.5" width="28" height="5" rx="2.5" fill="#4caf50" />

    <rect x="132" y="129" width="54" height="14" rx="5" fill="#ff9800" />
    <path d="M142 132.4l3.6 6.2h-7.2z" fill="none" stroke="#3b2600" stroke-width="1.3" stroke-linejoin="round" />
    <rect x="150" y="133.5" width="28" height="5" rx="2.5" fill="#3b2600" />
</svg>
